{
	"asset":{
		"generator":"Khronos glTF Blender I/O v4.0.44",
		"version":"2.0"
	},
	"scene":0,
	"scenes":[
		{
			"name":"Scene",
			"nodes":[
				0
			]
		}
	],
	"nodes":[
		{
			"mesh":0,
			"name":"Cylinder.003_Cylinder.005",
			"rotation":[
				0.7071068286895752,
				0,
				0,
				0.7071068286895752
			]
		}
	],
	"materials":[
		{
			"doubleSided":true,
			"name":"Material.006",
			"pbrMetallicRoughness":{
				"metallicFactor":0,
				"roughnessFactor":0.6900347471237183
			}
		}
	],
	"meshes":[
		{
			"name":"Cylinder.003_Cylinder.005",
			"primitives":[
				{
					"attributes":{
						"POSITION":0,
						"NORMAL":1,
						"TEXCOORD_0":2
					},
					"indices":3,
					"material":0
				}
			]
		}
	],
	"accessors":[
		{
			"bufferView":0,
			"componentType":5126,
			"count":1220,
			"max":[
				5.81319522857666,
				37.22210693359375,
				-1.8401809930801392
			],
			"min":[
				-1.7244290113449097,
				-45.99967575073242,
				-9.388923645019531
			],
			"type":"VEC3"
		},
		{
			"bufferView":1,
			"componentType":5126,
			"count":1220,
			"type":"VEC3"
		},
		{
			"bufferView":2,
			"componentType":5126,
			"count":1220,
			"type":"VEC2"
		},
		{
			"bufferView":3,
			"componentType":5123,
			"count":3786,
			"type":"SCALAR"
		}
	],
	"bufferViews":[
		{
			"buffer":0,
			"byteLength":14640,
			"byteOffset":0,
			"target":34962
		},
		{
			"buffer":0,
			"byteLength":14640,
			"byteOffset":14640,
			"target":34962
		},
		{
			"buffer":0,
			"byteLength":9760,
			"byteOffset":29280,
			"target":34962
		},
		{
			"buffer":0,
			"byteLength":7572,
			"byteOffset":39040,
			"target":34963
		}
	],
	"buffers":[
		{
			"byteLength":46612,
			"uri":"missile.bin"
		}
	]
}
