{
	"asset":{
		"generator":"Khronos glTF Blender I/O v4.0.44",
		"version":"2.0"
	},
	"scene":0,
	"scenes":[
		{
			"name":"Scene",
			"nodes":[
				0
			]
		}
	],
	"nodes":[
		{
			"mesh":0,
			"name":"ICO\u7403"
		}
	],
	"materials":[
		{
			"doubleSided":true,
			"name":"Material",
			"pbrMetallicRoughness":{
				"baseColorTexture":{
					"index":0
				},
				"metallicFactor":0,
				"roughnessFactor":0.5
			}
		}
	],
	"meshes":[
		{
			"name":"ICO\u7403",
			"primitives":[
				{
					"attributes":{
						"POSITION":0,
						"NORMAL":1,
						"TEXCOORD_0":2
					},
					"indices":3,
					"material":0
				}
			]
		}
	],
	"textures":[
		{
			"sampler":0,
			"source":0
		}
	],
	"images":[
		{
			"mimeType":"image/png",
			"name":"brokenEarth",
			"uri":"brokenEarth.png"
		}
	],
	"accessors":[
		{
			"bufferView":0,
			"componentType":5126,
			"count":396,
			"max":[
				0.9510578513145447,
				0.876849353313446,
				0.9999999403953552
			],
			"min":[
				-0.9510578513145447,
				-1,
				-0.8328573107719421
			],
			"type":"VEC3"
		},
		{
			"bufferView":1,
			"componentType":5126,
			"count":396,
			"type":"VEC3"
		},
		{
			"bufferView":2,
			"componentType":5126,
			"count":396,
			"type":"VEC2"
		},
		{
			"bufferView":3,
			"componentType":5123,
			"count":552,
			"type":"SCALAR"
		}
	],
	"bufferViews":[
		{
			"buffer":0,
			"byteLength":4752,
			"byteOffset":0,
			"target":34962
		},
		{
			"buffer":0,
			"byteLength":4752,
			"byteOffset":4752,
			"target":34962
		},
		{
			"buffer":0,
			"byteLength":3168,
			"byteOffset":9504,
			"target":34962
		},
		{
			"buffer":0,
			"byteLength":1104,
			"byteOffset":12672,
			"target":34963
		}
	],
	"samplers":[
		{
			"magFilter":9729,
			"minFilter":9987
		}
	],
	"buffers":[
		{
			"byteLength":13776,
			"uri":"brokenEarth.bin"
		}
	]
}
