{
	"asset":{
		"generator":"Khronos glTF Blender I/O v4.0.44",
		"version":"2.0"
	},
	"scene":0,
	"scenes":[
		{
			"name":"Scene",
			"nodes":[
				0
			]
		}
	],
	"nodes":[
		{
			"mesh":0,
			"name":"player"
		}
	],
	"materials":[
		{
			"doubleSided":true,
			"name":"Material.001",
			"pbrMetallicRoughness":{
				"baseColorTexture":{
					"index":0
				},
				"metallicFactor":0,
				"roughnessFactor":0.5
			}
		}
	],
	"meshes":[
		{
			"name":"ICO\u7403.003",
			"primitives":[
				{
					"attributes":{
						"POSITION":0,
						"NORMAL":1,
						"TEXCOORD_0":2
					},
					"indices":3,
					"material":0
				}
			]
		}
	],
	"textures":[
		{
			"sampler":0,
			"source":0
		}
	],
	"images":[
		{
			"mimeType":"image/png",
			"name":"player",
			"uri":"player.png"
		}
	],
	"accessors":[
		{
			"bufferView":0,
			"componentType":5126,
			"count":840,
			"max":[
				0.9510578513145447,
				0.9453473091125488,
				0.9453463554382324
			],
			"min":[
				-0.9510578513145447,
				-0.9453473687171936,
				-0.9453463554382324
			],
			"type":"VEC3"
		},
		{
			"bufferView":1,
			"componentType":5126,
			"count":840,
			"type":"VEC3"
		},
		{
			"bufferView":2,
			"componentType":5126,
			"count":840,
			"type":"VEC2"
		},
		{
			"bufferView":3,
			"componentType":5123,
			"count":1428,
			"type":"SCALAR"
		}
	],
	"bufferViews":[
		{
			"buffer":0,
			"byteLength":10080,
			"byteOffset":0,
			"target":34962
		},
		{
			"buffer":0,
			"byteLength":10080,
			"byteOffset":10080,
			"target":34962
		},
		{
			"buffer":0,
			"byteLength":6720,
			"byteOffset":20160,
			"target":34962
		},
		{
			"buffer":0,
			"byteLength":2856,
			"byteOffset":26880,
			"target":34963
		}
	],
	"samplers":[
		{
			"magFilter":9729,
			"minFilter":9987
		}
	],
	"buffers":[
		{
			"byteLength":29736,
			"uri":"player.bin"
		}
	]
}
